<svg id="svg1550" height="512" viewBox="0 0 6.3499999 6.3500002" width="512" xmlns="http://www.w3.org/2000/svg" xmlns:svg="http://www.w3.org/2000/svg"><g id="layer1" transform="translate(0 -290.65)"><path id="path2536" d="m3.1703618 290.90989c-.1463344.003-.2627984.12342-.2599325.26975v.79272c0 .35312.5296834.35312.5296834 0v-.79272c.00295-.15018-.1195676-.2727-.2697509-.26975zm1.8494995.7581c-.068853.003-.1339276.0322-.1813844.0822l-.5570717.56638c-.2473571.25287.1319477.6239.3793048.37103l.5544884-.56637c.1724467-.16938.046209-.46226-.1953371-.4532zm-3.7403401.0372c-.2380535.002-.35225482.29321-.1793174.45682l.5663737.55449c.2510851.2688.6436223-.12975.3710369-.37672l-.5663737-.55656c-.05066-.051-.1198687-.0791-.1917195-.078zm1.894458.89814c-.6719351 0-1.2205976.54866-1.2205976 1.2206 0 .67193.5486625 1.22266 1.2205976 1.22266s1.2226645-.55073 1.2226645-1.22266c0-.67194-.5507294-1.2206-1.2226645-1.2206zm0 .52968c.385952 0 .6934978.30496.6934978.69092 0 .38595-.3075458.69349-.6934978.69349-.3859519 0-.6909139-.30754-.6909139-.69349 0-.38596.304962-.69092.6909139-.69092zm-2.64428322.95705h.79271662c.3531216 0 .3531216-.52968 0-.52968h-.80641092c-.36726969 0-.33942733.54794.0136943.52968zm4.49791682 0h.7932332c.3531217 0 .3531217-.52968 0-.52968h-.8069276c-.3672697 0-.3394273.54794.013694.52968zm-.534851.76326c-.2389331.001-.3538644.29362-.1798341.45734l.5663737.55449c.251085.26879.6436222-.12976.3710368-.37673l-.5684409-.55707c-.050032-.0503-.118178-.0784-.1891355-.078zm-2.6210287.0274c-.069035.003-.1343179.0321-.1819011.0822l-.5565552.56638c-.25838212.25258.1316053.63458.3787883.37104l.5544881-.56845c.1685017-.16937.044004-.45766-.1948201-.45113zm1.2986287.52762c-.146128.003-.2625079.1231-.2599325.26923v.79323c0 .35312.5296834.35312.5296834 0v-.79323c.00265-.14998-.1197758-.27217-.2697509-.26923z" font-variant-ligatures="normal" font-variant-position="normal" font-variant-caps="normal" font-variant-numeric="normal" font-variant-alternates="normal" font-feature-settings="normal" text-indent="0" text-align="start" text-decoration-line="none" text-decoration-style="solid" text-decoration-color="rgb(0,0,0)" text-transform="none" text-orientation="mixed" white-space="normal" shape-padding="0" isolation="auto" mix-blend-mode="normal" solid-color="rgb(0,0,0)" solid-opacity="1" vector-effect="none"/></g></svg>