<svg id="Capa_1" enable-background="new 0 0 511 511" height="512" viewBox="0 0 511 511" width="512" xmlns="http://www.w3.org/2000/svg"><path d="m230.5 503.5h50l-10-38h-30z" fill="#c8d1da"/><path d="m52.5 503.5h50l-10-38h-30z" fill="#c8d1da"/><path d="m408.5 503.5h50l-10-38h-30z" fill="#c8d1da"/><path d="m185.5 434.5h140v31h-140z" fill="#e4e8ed"/><path d="m7.5 434.5h140v31h-140z" fill="#e4e8ed"/><path d="m363.5 434.5h140v31h-140z" fill="#e4e8ed"/><path d="m185.5 365.5h140v69h-140z" fill="#d7fff6"/><path d="m7.5 365.5h140v69h-140z" fill="#d7fff6"/><path d="m363.5 365.5h140v69h-140z" fill="#d7fff6"/><path d="m365.5 7.5h-220c-11.046 0-20 8.954-20 20v106h260v-106c0-11.046-8.954-20-20-20z" fill="#9eb6f4"/><path d="m125.5 163.5c0 11.046 8.954 20 20 20h220c11.046 0 20-8.954 20-20v-30h-260z" fill="#e4e8ed"/><path d="m190.5 253.5v-10c0-11.046 8.954-20 20-20h90c11.046 0 20 8.954 20 20v10z" fill="#e4e8ed"/><path d="m220.5 183.5h70v40h-70z" fill="#c8d1da"/><path d="m185.5 404.5h140v30h-140z" fill="#c2fef1"/><path d="m7.5 404.5h140v30h-140z" fill="#c2fef1"/><path d="m363.5 404.5h140v30h-140z" fill="#c2fef1"/><path d="m125.5 103.5h260v30h-260z" fill="#6e91ef"/><g fill="#fff"><path d="m278 411h-15v-15h15zm-30 0h-15v-15h15z"/><path d="m456 411h-15v-15h15zm-30 0h-15v-15h15z"/><path d="m100 411h-15v-15h15zm-30 0h-15v-15h15z"/><path d="m293 78h-15v-15h15zm-30 0h-15v-15h15zm-30 0h-15v-15h15z"/></g><path d="m295.5 373h22.5v54h-92.5v15h92.5v16h-125v-16h17.5v-15h-17.5v-54h87.5v-15h-102.5v115h52.771l-6.053 23h-14.218v15h90v-15h-14.218l-6.053-23h52.771v-115h-37.5zm-55.271 123 6.053-23h18.437l6.053 23z"/><path d="m73 312h74.5v-15h-89.5v45.5h15z"/><path d="m453 342.5v-45.5h-92.5v15h77.5v30.5z"/><path d="m330.5 297h15v15h-15z"/><path d="m162.5 297h15v15h-15z"/><path d="m263 342.5v-30.5h52.5v-15h-52.5v-20.5h-15v20.5h-55.5v15h55.5v30.5z"/><path d="m117.5 373h22.5v54h-92.5v15h92.5v16h-125v-16h17.5v-15h-17.5v-54h87.5v-15h-102.5v115h52.771l-6.053 23h-14.218v15h90v-15h-14.218l-6.053-23h52.771v-115h-37.5zm-55.271 123 6.053-23h18.437l6.053 23z"/><path d="m511 358h-37.5v15h22.5v54h-92.5v15h92.5v16h-125v-16h17.5v-15h-17.5v-54h87.5v-15h-102.5v115h52.771l-6.053 23h-14.218v15h90v-15h-14.218l-6.053-23h52.771zm-92.771 138 6.053-23h18.437l6.053 23z"/><path d="m145.5 191h67.5v25h-2.5c-15.164 0-27.5 12.336-27.5 27.5v17.5h145v-17.5c0-15.164-12.336-27.5-27.5-27.5h-2.5v-25h67.5c15.164 0 27.5-12.336 27.5-27.5v-98.571h-15v61.071h-182.5v15h182.5v22.5c0 6.893-5.607 12.5-12.5 12.5h-220c-6.893 0-12.5-5.607-12.5-12.5v-22.5h47.5v-15h-47.5v-38.786h-15v76.286c0 15.164 12.336 27.5 27.5 27.5zm155 40c6.893 0 12.5 5.607 12.5 12.5v2.5h-115v-2.5c0-6.893 5.607-12.5 12.5-12.5zm-72.5-40h55v25h-55z"/><path d="m133 27.5c0-6.893 5.607-12.5 12.5-12.5h220c6.893 0 12.5 5.607 12.5 12.5v22.429h15v-22.429c0-15.164-12.336-27.5-27.5-27.5h-220c-15.164 0-27.5 12.336-27.5 27.5v44.714h15z"/></svg>