<svg id="Capa_1" enable-background="new 0 0 512 512" height="512" viewBox="0 0 512 512" width="512" xmlns="http://www.w3.org/2000/svg"><g><g><path d="m454.5 504.5h-397c-27.614 0-50-22.386-50-50v-277c0-27.614 22.386-50 50-50h397c27.614 0 50 22.386 50 50v277c0 27.614-22.386 50-50 50z" fill="#ff9b9b"/></g><g><path d="m57.5 127.5h115.667v125.667h-165.667v-75.667c0-27.614 22.386-50 50-50z" fill="#ff7b7b"/></g><g><path d="m57.5 153.167v-25.667c-27.614 0-50 22.386-50 50v75.667h165.667v-50h-65.667c-27.614 0-50-22.386-50-50z" fill="#ea6565"/></g><g><path d="m338.833 127.5h115.667c27.614 0 50 22.386 50 50v75.667h-165.667z" fill="#ff7b7b"/></g><g><path d="m90.333 253.167h165.667v125.667h-165.667z" fill="#ff7b7b"/></g><g><path d="m140.333 278.833v-25.667h-50v125.667h165.667v-50h-65.667c-27.614 0-50-22.385-50-50z" fill="#ea6565"/></g><g><path d="m306 278.833v-25.667h-50v125.667h165.667v-50h-65.667c-27.614 0-50-22.385-50-50z" fill="#ff7b7b"/></g><g><path d="m388.833 153.167v-25.667h-50v125.667h165.667v-50h-65.667c-27.614 0-50-22.386-50-50z" fill="#ea6565"/></g><g><path d="m421.667 253.167h82.833v125.667h-82.833z" fill="#ea6565"/></g><g><path d="m7.5 378.833h165.667v125.667h-115.667c-27.614 0-50-22.386-50-50z" fill="#ff7b7b"/></g><g><path d="m338.833 378.833h165.667v75.667c0 27.614-22.386 50-50 50h-115.667z" fill="#ff7b7b"/></g><g><path d="m357.223 83.838c-23.295-1.43-31.371 40.925-31.371 40.925-5.05-50.355-39.384-117.263-69.852-117.263s-64.802 66.908-69.853 117.263c0 0-8.075-42.355-31.37-40.925s-48.951 49.564-38.482 108.559c10.468 58.994 72.184 104.22 139.706 104.22s129.237-45.226 139.706-104.22c10.468-58.994-15.188-107.128-38.484-108.559z" fill="#ffe4b2"/></g><g><path d="m256 192.397c-10.469-58.995 15.187-107.128 38.482-108.559 23.295-1.43 31.37 40.925 31.37 40.925-5.05-50.355-39.384-117.263-69.852-117.263s-64.802 66.908-69.853 117.263c0 0-8.075-42.355-31.37-40.925s-48.951 49.564-38.482 108.559c10.468 58.994 72.184 104.22 139.706 104.22 24.826 0 48.855-6.132 69.853-16.796-36.113-18.34-63.235-50.12-69.854-87.424z" fill="#ffce62"/></g><g><path d="m57.5 404.5v-25.667h-50v75.667c0 27.614 22.386 50 50 50h115.667v-50h-65.667c-27.614 0-50-22.386-50-50z" fill="#ea6565"/></g><g><path d="m223.167 404.5v-25.667h-50v125.667h165.667v-50h-65.667c-27.615 0-50-22.386-50-50z" fill="#ff7b7b"/></g><g><path d="m388.833 404.5v-25.667h-50v125.667h115.667c27.614 0 50-22.386 50-50h-65.667c-27.614 0-50-22.386-50-50z" fill="#ea6565"/></g><g><path d="m245.19 214.935c2.729-3.132 6.669-4.928 10.81-4.928s8.081 1.796 10.81 4.928c1.483 1.702 3.564 2.572 5.657 2.572 1.748 0 3.503-.607 4.925-1.846 3.123-2.722 3.448-7.459.727-10.582-5.579-6.401-13.641-10.073-22.119-10.073s-16.54 3.671-22.119 10.073c-2.721 3.123-2.396 7.86.727 10.582 3.122 2.72 7.859 2.396 10.582-.726z"/><path d="m186.051 202.047c0 4.142 3.358 7.5 7.5 7.5s7.5-3.358 7.5-7.5v-8.839l2.381.638c.65.174 1.303.257 1.946.257 3.311 0 6.342-2.21 7.24-5.561 1.072-4.001-1.302-8.113-5.304-9.186l-24.065-6.448c-3.994-1.067-8.113 1.302-9.186 5.304-1.072 4.001 1.302 8.113 5.303 9.186l7.078 1.897c-.252.75-.394 1.551-.394 2.387v10.365z"/><path d="m337.936 178.212c-1.072-4.001-5.187-6.375-9.186-5.304l-24.065 6.448c-4.001 1.072-6.375 5.185-5.304 9.186.898 3.351 3.928 5.561 7.24 5.561.643 0 1.296-.083 1.946-.257l2.381-.638v8.839c0 4.142 3.358 7.5 7.5 7.5s7.5-3.358 7.5-7.5v-10.366c0-.835-.142-1.636-.394-2.387l7.078-1.897c4.002-1.072 6.376-5.184 5.304-9.185z"/><path d="m454.5 120h-56.15c-3.918-11.423-8.997-20.677-14.161-27.235-8.001-10.164-17.167-15.839-26.506-16.413-13.939-.851-23.375 9.126-29.484 20.116-11.965-45.784-41.068-96.468-72.199-96.468-19.782 0-36.473 20.034-46.991 36.84-2.198 3.511-1.133 8.139 2.378 10.336 3.512 2.198 8.139 1.132 10.336-2.378 11.678-18.659 24.492-29.798 34.277-29.798 23.495 0 57.314 59.904 62.391 110.512.372 3.704 3.405 6.571 7.124 6.74 3.708.169 7-2.42 7.705-6.076 1.795-9.307 9.986-35.667 23.545-34.852 4.808.295 10.508 4.202 15.639 10.72 11.94 15.167 23.274 47.588 15.918 89.042-9.754 54.971-67.877 98.031-132.321 98.031-64.445 0-122.567-43.06-132.321-98.031-7.356-41.455 3.978-73.875 15.918-89.042 5.131-6.518 10.831-10.424 15.639-10.72 13.607-.814 21.75 25.545 23.544 34.844.698 3.66 3.974 6.249 7.699 6.088 3.722-.165 6.759-3.037 7.131-6.744 1.708-17.029 6.994-36.594 14.883-55.091 1.625-3.81-.146-8.216-3.957-9.841-3.809-1.623-8.216.147-9.841 3.957-4.464 10.466-8.154 21.283-10.918 31.884-6.11-10.97-15.545-20.929-29.459-20.067-9.339.573-18.504 6.249-26.506 16.413-5.163 6.558-10.242 15.812-14.161 27.235h-56.152c-31.706-.002-57.5 25.792-57.5 57.498v277c0 31.706 25.794 57.5 57.5 57.5h397c31.706 0 57.5-25.794 57.5-57.5v-277c0-31.706-25.794-57.5-57.5-57.5zm42.5 140.667v110.667h-67.833v-110.667zm-93.909-66.959c3.912-22.047 2.955-41.972-.611-58.708h52.02c23.435 0 42.5 19.065 42.5 42.5v68.167h-117.514c12.178-15.673 20.309-33.386 23.605-51.959zm-37.157 66.959h48.232v110.667h-150.666v-67.4c31.792-1.499 62.861-12.468 88.217-31.28 5.064-3.758 9.807-7.766 14.217-11.987zm-117.434 43.266v67.4h-150.667v-110.666h48.232c4.41 4.222 9.153 8.229 14.217 11.986 25.356 18.813 56.426 29.782 88.218 31.28zm-233.5-43.266h67.833v110.667h-67.833zm42.5-125.667h52.02c-3.566 16.735-4.523 36.661-.611 58.708 3.296 18.574 11.427 36.287 23.605 51.959h-117.514v-68.167c0-23.435 19.065-42.5 42.5-42.5zm-42.5 319.5v-68.167h150.667v110.667h-108.167c-23.435 0-42.5-19.065-42.5-42.5zm439.5 42.5h-108.167v-61.585c0-4.142-3.358-7.5-7.5-7.5s-7.5 3.358-7.5 7.5v61.585h-150.666v-110.667h150.667v19.082c0 4.142 3.358 7.5 7.5 7.5s7.5-3.358 7.5-7.5v-19.082h150.666v68.167c0 23.435-19.065 42.5-42.5 42.5z"/></g></g></svg>