<?xml version="1.0" encoding="iso-8859-1"?>
<!-- Generator: Adobe Illustrator 19.0.0, SVG Export Plug-In . SVG Version: 6.00 Build 0)  -->
<svg version="1.1" id="Capa_1" xmlns="http://www.w3.org/2000/svg" xmlns:xlink="http://www.w3.org/1999/xlink" x="0px" y="0px"
	 viewBox="0 0 512 512" style="enable-background:new 0 0 512 512;" xml:space="preserve">
<g>
	<g>
		<path d="M512,45c0-24.813-20.187-45-45-45H45C20.187,0,0,20.187,0,45v60c0,11.508,4.347,22.017,11.479,29.982
			C4.061,143.246,0,153.81,0,165v60c0,11.182,4.056,21.739,11.464,30C4.056,263.261,0,273.818,0,285v60c0,24.872,20.127,45,45,45
			h196v34.58c-12.764,4.527-22.893,14.656-27.42,27.42H76c-8.284,0-15,6.716-15,15s6.716,15,15,15h137.58
			c6.192,17.458,22.865,30,42.42,30s36.228-12.542,42.42-30H436c8.284,0,15-6.716,15-15s-6.716-15-15-15H298.42
			c-4.527-12.764-14.656-22.893-27.42-27.42V390h196c24.873,0,45-20.128,45-45v-60c0-11.182-4.056-21.739-11.465-30
			c7.409-8.261,11.465-18.818,11.465-30v-60c0-11.19-4.061-21.753-11.48-30.018C507.653,127.017,512,116.508,512,105V45z M256,482
			c-8.271,0-15-6.729-15-15s6.729-15,15-15s15,6.729,15,15S264.271,482,256,482z M482,345c0,8.291-6.708,15-15,15H45
			c-8.291,0-15-6.708-15-15v-60c0-8.291,6.708-15,15-15h422c8.292,0,15,6.711,15,15V345z M482,225c0,8.29-6.708,15-15,15H45
			c-8.29,0-15-6.708-15-15v-60c0-8.291,6.708-15,15-15h422c8.292,0,15,6.711,15,15V225z M482,105c0,8.271-6.729,15-15,15H45
			c-8.271,0-15-6.729-15-15V45c0-8.271,6.729-15,15-15h422c8.271,0,15,6.729,15,15V105z"/>
	</g>
</g>
<g>
	<g>
		<path d="M195,60H75c-8.284,0-15,6.716-15,15s6.716,15,15,15h120c8.284,0,15-6.716,15-15S203.284,60,195,60z"/>
	</g>
</g>
<g>
	<g>
		<path d="M195,180H75c-8.284,0-15,6.716-15,15s6.716,15,15,15h120c8.284,0,15-6.716,15-15S203.284,180,195,180z"/>
	</g>
</g>
<g>
	<g>
		<path d="M195,300H75c-8.284,0-15,6.716-15,15s6.716,15,15,15h120c8.284,0,15-6.716,15-15S203.284,300,195,300z"/>
	</g>
</g>
<g>
	<g>
		<circle cx="437" cy="75" r="15"/>
	</g>
</g>
<g>
	<g>
		<circle cx="377" cy="75" r="15"/>
	</g>
</g>
<g>
	<g>
		<circle cx="437" cy="195" r="15"/>
	</g>
</g>
<g>
	<g>
		<circle cx="377" cy="195" r="15"/>
	</g>
</g>
<g>
	<g>
		<circle cx="437" cy="315" r="15"/>
	</g>
</g>
<g>
	<g>
		<circle cx="377" cy="315" r="15"/>
	</g>
</g>
<g>
	<g>
		<circle cx="317" cy="75" r="15"/>
	</g>
</g>
<g>
	<g>
		<circle cx="317" cy="195" r="15"/>
	</g>
</g>
<g>
	<g>
		<circle cx="317" cy="315" r="15"/>
	</g>
</g>
<g>
</g>
<g>
</g>
<g>
</g>
<g>
</g>
<g>
</g>
<g>
</g>
<g>
</g>
<g>
</g>
<g>
</g>
<g>
</g>
<g>
</g>
<g>
</g>
<g>
</g>
<g>
</g>
<g>
</g>
</svg>
