<svg width="31" height="20" viewBox="0 0 31 20" fill="none" xmlns="http://www.w3.org/2000/svg">
<path d="M21.2204 0.679341C19.9685 0.676693 18.7296 0.9382 17.5821 1.44734C16.4344 1.95649 15.403 2.70221 14.5529 3.63745L18.6128 7.76884C19.1726 8.33855 19.4871 9.11119 19.4871 9.91691C19.4871 10.7226 19.1726 11.4952 18.6128 12.0649L14.5529 16.1988C15.4018 17.1348 16.4321 17.8816 17.5789 18.392C18.7256 18.9024 19.9639 19.1654 21.2155 19.1644C23.6227 19.1644 25.9314 18.1913 27.6335 16.4591C29.3357 14.727 30.2919 12.3777 30.2919 9.92812C30.2935 8.71455 30.0602 7.51255 29.605 6.39086C29.1499 5.26914 28.482 4.24969 27.6396 3.39076C26.7971 2.53184 25.7966 1.85029 24.6951 1.38504C23.5937 0.9198 22.413 0.679996 21.2204 0.679341Z" fill="#3730A3"/>
<path d="M12.1388 9.92064C12.1335 7.59093 12.996 5.34574 14.5527 3.63746L11.8543 0.891543C11.5777 0.608959 11.2489 0.384742 10.8868 0.23175C10.5248 0.0787571 10.1367 0 9.74466 0C9.35263 0 8.96454 0.0787571 8.60249 0.23175C8.24044 0.384742 7.91166 0.608959 7.63503 0.891543L0.874287 7.76886C0.314488 8.33857 0 9.11121 0 9.91686C0 10.7226 0.314488 11.4952 0.874287 12.0649L7.63503 18.9422C7.91201 19.2242 8.24093 19.4479 8.60291 19.6006C8.96489 19.7531 9.35285 19.8317 9.74466 19.8317C10.1365 19.8317 10.5244 19.7531 10.8864 19.6006C11.2484 19.4479 11.5773 19.2242 11.8543 18.9422L14.5527 16.1963C12.9946 14.4906 12.1302 12.247 12.1339 9.91814L12.1388 9.92064Z" fill="#3730A3"/>
</svg>
